<?xml version="1.0" standalone="no"?>
<!DOCTYPE svg PUBLIC "-//W3C//DTD SVG 20010904//EN"
 "http://www.w3.org/TR/2001/REC-SVG-20010904/DTD/svg10.dtd">
<svg version="1.0" xmlns="http://www.w3.org/2000/svg"
 width="438.000000pt" height="440.000000pt" viewBox="0 0 438.000000 440.000000"
 preserveAspectRatio="xMidYMid meet">
<metadata>
Created by potrace 1.16, written by Peter Selinger 2001-2019
</metadata>
<g transform="translate(0.000000,440.000000) scale(0.100000,-0.100000)"
fill="#000000" stroke="none">
<path d="M2800 4184 c0 -21 -4 -24 -20 -19 -32 10 -23 -11 14 -34 56 -35 60
-45 32 -76 -14 -15 -23 -31 -20 -36 9 -16 39 -10 51 10 10 16 22 19 70 17 32
-2 66 -7 77 -11 12 -5 21 -3 27 6 20 31 10 36 -70 31 -73 -4 -79 -3 -85 16 -4
11 -13 23 -21 26 -19 7 -20 46 -2 46 8 0 19 -11 25 -25 9 -20 19 -25 50 -25
21 0 43 -5 49 -11 8 -8 28 -9 58 -4 55 8 53 16 -7 21 -23 2 -46 8 -52 14 -5 5
-27 10 -48 10 -36 0 -52 13 -25 23 18 7 7 13 -50 30 l-53 16 0 -25z"/>
<path d="M1467 4173 c-10 -3 -17 -12 -15 -21 6 -26 -41 -49 -90 -45 -29 2 -56
-4 -82 -17 -43 -22 -91 -66 -82 -74 13 -14 43 -4 58 18 21 33 94 72 94 51 0
-14 -108 -125 -122 -125 -11 0 -48 38 -48 50 0 13 -26 13 -51 -1 -16 -8 -18
-14 -9 -24 8 -9 8 -15 0 -20 -23 -14 -7 -22 35 -17 25 2 45 1 45 -2 0 -4 -19
-30 -42 -57 -22 -27 -38 -52 -35 -55 10 -10 106 79 107 98 0 10 14 21 35 28
19 6 37 20 40 31 9 26 106 89 139 89 25 0 31 11 27 48 -1 7 11 12 34 12 38 0
46 14 16 30 -21 10 -24 11 -54 3z"/>
<path d="M2110 3366 c-65 -18 -88 -35 -111 -84 -19 -38 -20 -47 -9 -93 7 -29
9 -72 5 -104 -6 -51 -5 -55 23 -80 16 -14 37 -43 46 -63 15 -33 15 -41 3 -71
l-15 -34 71 -54 c39 -29 74 -53 78 -53 4 0 39 25 78 56 39 30 71 50 71 43 0
-7 2 -10 5 -7 3 3 -2 22 -12 42 -14 30 -15 42 -5 69 7 19 12 40 12 49 0 8 14
29 30 46 31 33 41 87 18 94 -7 3 -14 38 -17 95 -5 79 -9 95 -30 117 -38 40
-51 34 -52 -26 -1 -47 -2 -49 -8 -18 l-6 35 -55 -2 -55 -2 43 13 c77 25 78 26
62 36 -21 13 -116 11 -170 -4z"/>
<path d="M4102 2838 c2 -15 9 -22 21 -22 18 2 31 -29 26 -62 -4 -25 9 -62 29
-83 43 -46 47 -56 44 -116 -2 -33 -8 -64 -12 -69 -5 -5 -2 -22 8 -40 12 -24
17 -27 20 -13 4 20 13 22 30 5 19 -19 29 2 22 47 l-6 40 -14 -27 c-19 -39 -25
-35 -28 17 -1 33 3 47 13 51 17 7 20 40 5 49 -6 4 -8 11 -4 16 3 6 3 22 -1 36
-6 24 -7 24 -19 8 -12 -17 -14 -16 -29 6 -10 13 -17 31 -17 41 0 9 -4 20 -10
23 -15 9 -12 35 4 35 7 0 16 11 19 25 2 14 2 23 -1 21 -3 -3 -11 2 -17 11 -10
14 -16 15 -28 5 -12 -10 -16 -10 -21 3 -9 25 -38 19 -34 -7z"/>
<path d="M2019 2788 c-8 -5 -81 -30 -164 -56 l-150 -48 -25 -44 c-24 -43 -25
-51 -22 -185 2 -77 7 -158 10 -179 l7 -39 88 -25 c52 -15 91 -32 95 -40 14
-38 94 -102 145 -116 79 -22 210 -28 338 -16 148 14 182 24 214 61 24 29 24
33 11 54 -14 21 -12 23 76 63 l91 42 -6 173 c-4 96 -9 181 -12 189 -4 9 -81
49 -173 90 l-167 74 -53 -164 c-30 -91 -57 -161 -62 -156 -4 5 -17 39 -30 76
-22 70 -21 98 9 131 15 17 14 20 -4 33 -27 20 -44 18 -90 -12 -36 -23 -33 -25
8 -9 15 7 37 -35 37 -68 -1 -12 -9 -55 -19 -96 l-18 -75 -12 35 c-7 19 -34 97
-60 175 -38 112 -50 138 -62 132z m361 -323 c7 -8 24 -15 39 -15 14 0 45 -9
68 -20 35 -15 48 -30 70 -75 l28 -56 -40 -34 c-22 -18 -41 -32 -43 -30 -2 1 7
23 19 47 l21 45 -25 40 c-37 58 -121 85 -112 35 17 -82 18 -79 -32 -96 -26 -9
-47 -15 -48 -13 -1 1 -7 28 -14 59 -7 32 -16 60 -21 63 -4 2 -33 0 -65 -6 -31
-6 -59 -8 -61 -6 -4 3 176 73 197 76 4 1 12 -6 19 -14z"/>
<path d="M840 1550 l0 -220 50 0 50 0 0 70 0 70 65 0 65 0 0 40 0 40 -65 0
-65 0 0 35 0 35 75 0 75 0 0 75 0 75 -125 0 -125 0 0 -220z"/>
<path d="M1204 1760 c-16 -5 -41 -21 -55 -36 -23 -25 -24 -30 -24 -180 l0
-154 28 -27 c24 -25 36 -28 107 -31 77 -4 80 -3 110 26 l30 30 0 151 c0 154
-7 188 -40 209 -26 16 -118 23 -156 12z m107 -140 c15 -9 19 -22 19 -70 0 -48
-4 -61 -19 -70 -29 -15 -67 -12 -85 6 -21 21 -21 107 0 128 18 18 56 21 85 6z"/>
<path d="M1437 1763 c-4 -3 -7 -102 -7 -220 l0 -213 180 0 180 0 0 40 0 40
-130 0 -130 0 0 180 0 180 -43 0 c-24 0 -47 -3 -50 -7z"/>
<path d="M1577 1764 c-4 -4 -7 -20 -7 -35 0 -23 5 -28 28 -31 27 -3 27 -4 27
-78 0 -74 0 -75 -27 -78 -26 -3 -28 -7 -28 -48 l0 -44 100 0 100 0 0 44 c0 41
-2 45 -27 48 -28 3 -28 4 -28 78 0 75 0 75 28 78 25 3 28 7 25 35 l-3 32 -90
3 c-50 1 -94 0 -98 -4z"/>
<path d="M1893 1760 c-17 -6 -41 -22 -52 -36 -19 -24 -21 -40 -21 -180 0 -147
1 -154 24 -181 22 -25 31 -28 104 -31 77 -4 81 -3 113 26 l34 30 3 129 c4 144
-7 205 -41 228 -29 19 -123 27 -164 15z m108 -140 c15 -9 19 -22 19 -71 0 -54
-2 -60 -25 -71 -18 -8 -35 -9 -53 -2 -25 9 -27 14 -30 69 -3 47 0 62 14 72 21
16 49 17 75 3z"/>
<path d="M2130 1722 c0 -35 4 -52 15 -56 12 -4 15 -28 15 -126 0 -98 -3 -122
-15 -126 -10 -4 -15 -20 -15 -45 l0 -39 125 0 c184 0 202 13 193 146 -3 55 -8
69 -27 84 -16 11 -20 20 -12 24 6 4 11 35 11 75 0 99 -9 105 -166 110 l-124 3
0 -50z"/>
<path d="M2480 1550 l0 -220 186 0 185 0 -3 53 -3 52 -142 3 -143 3 0 164 0
165 -40 0 -40 0 0 -220z"/>
<path d="M2659 1763 c-54 -9 -64 -34 -64 -155 0 -105 1 -111 25 -130 21 -17
36 -19 93 -16 93 5 97 12 97 149 0 127 -9 145 -80 152 -25 3 -57 3 -71 0z"/>
<path d="M2953 1760 c-17 -6 -41 -22 -52 -36 -19 -24 -21 -40 -21 -180 0 -147
1 -154 24 -181 21 -25 31 -28 100 -31 136 -7 160 30 154 233 -4 133 -13 166
-47 185 -28 15 -122 21 -158 10z m108 -140 c15 -9 19 -22 19 -70 0 -64 -13
-80 -62 -80 -38 0 -50 15 -56 68 -4 41 -1 53 17 71 23 23 52 27 82 11z"/>
<path d="M3190 1550 l0 -220 50 0 50 0 1 143 1 142 25 -128 25 -128 31 3 31 3
26 125 25 125 3 -142 3 -143 44 0 45 0 -2 218 -3 217 -66 3 -66 3 -18 -111
c-10 -61 -20 -108 -22 -106 -5 4 -15 55 -37 179 l-7 37 -69 0 -70 0 0 -220z"/>
<path d="M400 1081 c0 -21 52 -72 69 -66 22 7 46 -35 36 -64 -9 -28 10 -50 35
-44 14 4 20 0 20 -10 0 -9 9 -21 20 -27 11 -6 20 -18 20 -27 0 -14 -3 -14 -21
3 -22 19 -22 19 -11 -1 6 -11 24 -33 41 -49 l31 -30 0 32 c0 17 -4 34 -10 37
-5 3 -10 17 -10 29 0 13 -7 29 -15 36 -8 7 -15 21 -15 32 0 11 -5 28 -11 39
-6 11 -11 33 -11 50 -1 28 -18 43 -18 15 0 -29 -26 -22 -50 13 -19 28 -25 32
-28 19 -5 -23 -13 -23 -46 3 -14 11 -26 16 -26 10z"/>
<path d="M3015 360 c-36 -36 -46 -53 -39 -60 12 -12 37 6 47 32 2 7 8 10 12 6
4 -4 -3 -21 -15 -37 -17 -26 -28 -31 -60 -31 -21 0 -42 5 -45 11 -4 6 -14 8
-22 5 -8 -3 -28 2 -44 11 -22 13 -32 14 -40 6 -17 -17 13 -43 50 -43 21 0 31
-5 31 -15 0 -12 10 -13 48 -9 83 9 92 13 109 48 12 26 24 36 51 41 19 3 39 2
45 -4 13 -13 37 -2 37 18 0 14 -10 17 -51 18 -56 1 -67 6 -51 26 11 13 7 28
-7 26 -3 0 -28 -22 -56 -49z"/>
<path d="M1960 220 c0 -25 -6 -32 -36 -45 -20 -8 -45 -15 -56 -15 -14 0 -19
-6 -16 -22 4 -30 24 -33 45 -9 23 28 59 26 99 -4 18 -14 40 -25 48 -25 9 0 25
-6 36 -12 15 -10 27 -10 51 -1 21 8 38 9 50 3 10 -6 27 -10 39 -10 28 0 21 24
-9 28 -12 2 -27 14 -33 28 -11 24 -32 32 -43 15 -3 -5 -1 -12 5 -16 22 -13 8
-25 -29 -25 -28 0 -44 6 -53 19 -8 10 -25 21 -38 23 -22 3 -25 7 -22 36 3 32
-11 62 -29 62 -5 0 -9 -13 -9 -30z"/>
</g>
</svg>
